PathFileType	4	(X/Y/Z)	C:\Users\Basilio\Documents\Thesis Gigler\squatting_fais\c3dfiles\058\SJ_pre1\markers_experimental.trc
DataRate	CameraRate	NumFrames	NumMarkers	Units	OrigDataRate	OrigDataStartFrame	OrigNumFrames
200.000000	200.000000	4	61	mm	200.000000	196	1573
Frame#	Time	FHD			LBHD			RBHD			C7			T10			CLAV			LSHO			LUUPA			LMUPA			LDUPA			LLEP			LMEP			LRAD			LUL			LRFIN			RSHO			RUPA1			RMUPA			RDUPA			RLEP			RMEP			RRAD			RUL			RUFIN			LASI			RASI			USACR			LSACR			RSACR			LTHI1			LTHI2			LTHI3			LTHI4			LLFC			LMFC			LTIB1			LTIB2			LTIB3			LTIB4			LLMAL			LMMAL			LHEE			LMT1			LMT2			LMT5			RTHI			RTHI2			RTHI3			RTHI4			RLFC			RMFC			RTIB1			RTIB2			RTIB3			RTIB4			RLMAL			RMMAL			RHEE			RMT1			RMT2			RMT5			
		X1	Y1	Z1	X2	Y2	Z2	X3	Y3	Z3	X4	Y4	Z4	X5	Y5	Z5	X6	Y6	Z6	X7	Y7	Z7	X8	Y8	Z8	X9	Y9	Z9	X10	Y10	Z10	X11	Y11	Z11	X12	Y12	Z12	X13	Y13	Z13	X14	Y14	Z14	X15	Y15	Z15	X16	Y16	Z16	X17	Y17	Z17	X18	Y18	Z18	X19	Y19	Z19	X20	Y20	Z20	X21	Y21	Z21	X22	Y22	Z22	X23	Y23	Z23	X24	Y24	Z24	X25	Y25	Z25	X26	Y26	Z26	X27	Y27	Z27	X28	Y28	Z28	X29	Y29	Z29	X30	Y30	Z30	X31	Y31	Z31	X32	Y32	Z32	X33	Y33	Z33	X34	Y34	Z34	X35	Y35	Z35	X36	Y36	Z36	X37	Y37	Z37	X38	Y38	Z38	X39	Y39	Z39	X40	Y40	Z40	X41	Y41	Z41	X42	Y42	Z42	X43	Y43	Z43	X44	Y44	Z44	X45	Y45	Z45	X46	Y46	Z46	X47	Y47	Z47	X48	Y48	Z48	X49	Y49	Z49	X50	Y50	Z50	X51	Y51	Z51	X52	Y52	Z52	X53	Y53	Z53	X54	Y54	Z54	X55	Y55	Z55	X56	Y56	Z56	X57	Y57	Z57	X58	Y58	Z58	X59	Y59	Z59	X60	Y60	Z60	X61	Y61	Z61	

197	0.98	-87.78006744384767	1735.35498046875	-798.0943603515627	-262.0306396484376	1694.706298828125	-820.5024414062502	-117.9569320678711	1750.039428710938	-936.1074829101565	-308.1357116699219	1574.75537109375	-871.969909667969	-395.6377258300782	1267.102294921875	-874.5404052734377	-169.4309539794922	1481.404296875	-854.4400024414065	-158.1484680175782	1545.68212890625	-1021.506103515625	-307.1665039062501	1467.677734375	-1189.471069335938	-285.6091613769532	1422.5341796875	-1198.173095703125	-338.8888854980469	1417.140380859375	-1227.694091796875	-381.9322814941407	1351.446411132813	-1261.68212890625	-439.3853759765626	1357.23095703125	-1213.002319335938	-385.9501342773439	1146.291381835938	-1076.989135742188	-364.3736877441407	1095.340942382813	-1136.541870117188	-312.9242248535157	1147.4033203125	-1065.846069335938	-198.7906188964844	1548.24560546875	-683.6145629882814	-363.7552795410157	1450.961303710938	-544.6088867187501	-341.1618957519532	1406.323120117188	-541.7589721679689	-391.2935485839845	1394.201416015625	-511.9969482421876	-433.7440490722657	1341.275390625	-487.9125061035157	-492.1382751464845	1331.467041015625	-555.4395751953126	-364.6795654296876	1144.8115234375	-660.6976318359376	-353.2006225585938	1096.36376953125	-597.5291748046876	-294.7552185058594	1114.043823242188	-680.8625488281251	-244.3283691406251	1032.685302734375	-995.1424560546877	-242.7370147705079	1030.63720703125	-761.4326171875001	-422.7481994628907	1145.646118164063	-865.6270141601565	-435.127410888672	1115.87548828125	-893.3001098632815	-433.3420410156251	1114.9462890625	-835.958435058594	-312.1947326660157	773.4810180664065	-1105.585205078125	-284.5019531250001	693.3190917968751	-1112.298706054688	-238.8465118408204	690.8475952148439	-1088.524169921875	-314.4257507324219	641.0400390625001	-1105.855346679688	-311.6300354003907	542.4275512695314	-1107.784423828125	-278.2621765136719	518.9138793945314	-987.6000976562502	-259.3473205566407	402.9593811035157	-1095.749877929688	-321.8686218261719	379.3631591796876	-1150.22607421875	-281.7008361816407	365.3070678710938	-1132.452880859375	-286.5835876464844	280.8877563476563	-1118.74267578125	-364.6619567871094	92.02330017089845	-1151.905029296875	-331.6774291992188	96.37122344970706	-1063.668090820313	-422.4191894531251	49.74009323120119	-1099.466064453125	-196.1747589111329	62.65632247924806	-1110.981811523438	-198.437973022461	62.87368011474611	-1158.462646484375	-253.1034698486329	38.37868881225587	-1206.76025390625	-352.3884277343751	843.1243286132815	-669.2194824218751	-311.2770385742188	792.2297363281252	-658.1234741210939	-278.0764770507813	793.9636230468752	-661.0410766601564	-331.9545593261719	710.3346557617189	-669.1218261718751	-312.1958007812501	535.1635742187501	-663.2642211914064	-277.3812866210938	505.7283020019532	-789.6731567382815	-272.3141174316407	321.0426940917969	-717.2426757812501	-312.9575805664063	256.4513244628907	-637.6345214843751	-280.3173217773438	243.6704711914063	-670.2700195312501	-292.6651916503907	194.5215759277344	-697.4710693359376	-351.7936706542969	93.40455627441408	-639.6119384765626	-325.2338867187501	105.2400588989258	-729.6473999023439	-417.3013000488282	48.01756668090822	-693.3585815429689	-197.5981445312501	58.31154632568361	-699.4558715820314	-195.1445007324219	62.8522300720215	-648.6252441406251	-237.112045288086	26.74188423156739	-593.8526000976564	
198	0.985	-88.09939575195314	1735.728271484375	-798.8440551757815	-262.1799011230469	1694.662353515625	-821.1792602539065	-121.4654235839844	1749.493286132813	-935.9923095703127	-307.8835449218751	1574.8798828125	-872.4813232421877	-395.3519897460939	1267.28515625	-875.1575927734377	-168.9812622070313	1481.592529296875	-855.0972900390627	-157.8060150146485	1546.028076171875	-1022.1025390625	-306.6502380371094	1467.927001953125	-1190.353149414063	-285.2387390136719	1422.8955078125	-1198.85546875	-338.6229553222657	1417.28076171875	-1228.276489257813	-381.4141235351563	1351.576049804688	-1262.387939453125	-438.8994445800782	1357.640747070313	-1213.626098632813	-385.4774780273439	1146.5419921875	-1077.590454101563	-363.8678894042969	1095.499633789063	-1137.199340820313	-312.5043945312501	1147.615478515625	-1066.426147460938	-198.3725280761719	1548.47265625	-684.2261352539064	-363.5878906250001	1451.208374023438	-545.2914428710939	-340.9934692382813	1406.4111328125	-542.4512329101564	-391.1636047363282	1394.382202148438	-512.7722167968751	-433.7901306152345	1341.33203125	-488.7196655273439	-492.0216674804689	1331.657348632813	-556.2879638671876	-364.7259521484376	1144.88818359375	-661.4850463867189	-352.8075256347657	1096.456420898438	-598.2329101562501	-294.4179077148438	1114.079467773438	-681.5209350585939	-244.1596679687501	1032.744018554688	-995.7236328125002	-242.2410278320313	1030.760375976563	-762.0170898437501	-422.6148681640626	1145.676147460938	-866.0330810546877	-434.9199523925782	1115.93359375	-893.9017333984377	-433.1125793457032	1114.97509765625	-836.624694824219	-311.9635009765626	773.5615844726565	-1106.059448242188	-283.4148864746094	693.6538696289064	-1113.09033203125	-238.7464447021485	690.8363647460939	-1088.936645507813	-314.4023742675782	641.2063598632814	-1106.290771484375	-311.6574401855469	542.4758911132814	-1108.130859375	-278.5145874023438	518.9082641601564	-987.9661254882815	-259.4238891601563	402.9349365234376	-1096.119750976563	-321.9758605957032	379.4092407226563	-1150.48974609375	-281.6611022949219	365.3942260742188	-1132.73974609375	-286.5778503417969	280.8615722656251	-1119.03466796875	-364.7129516601563	92.00706481933595	-1151.9384765625	-331.6968688964844	96.35127258300784	-1063.755859375	-422.417205810547	49.82064819335939	-1099.44091796875	-196.1226959228516	62.70460128784181	-1111.043701171875	-198.5390777587891	62.68208694458009	-1158.496704101563	-252.9456939697266	38.27733230590821	-1206.826416015625	-352.5010375976563	843.0444946289065	-669.8258666992189	-311.5890808105469	791.961853027344	-658.8218994140626	-277.9844970703126	793.815856933594	-661.8126220703126	-332.0265197753907	710.2601318359376	-669.6191406250001	-312.0796508789063	535.0988159179689	-663.8787231445314	-277.5397644042969	505.6592712402345	-790.281677246094	-272.2178649902344	321.0096435546876	-717.8240966796876	-312.9752502441407	256.5548095703126	-638.0422363281251	-280.1503601074219	243.7919006347657	-670.7864379882814	-292.5226745605469	194.7602996826172	-698.0034179687501	-351.8206481933594	93.4928665161133	-639.7849731445314	-325.1838378906251	105.2529754638672	-729.8440551757814	-417.2427062988282	47.96072387695313	-693.4256591796876	-199.8104400634766	57.96139526367189	-700.1375732421876	-195.1570739746094	62.89259719848634	-648.7354125976564	-237.116928100586	26.80099678039551	-593.9413452148439	
199	0.99	-88.03710937500001	1736.000732421875	-799.5621337890627	-262.1472778320313	1694.675415039063	-821.737487792969	-117.9042663574219	1750.479736328125	-937.635681152344	-307.6252136230469	1574.912231445313	-873.2088012695315	-395.1158752441407	1267.266357421875	-875.7105102539065	-168.5548706054688	1481.599975585938	-855.839294433594	-157.5503845214844	1546.362548828125	-1022.67431640625	-306.2155456542969	1468.125	-1191.077758789063	-284.8789367675782	1423.1396484375	-1199.491088867188	-338.0215759277344	1417.46630859375	-1229.071166992188	-380.9886474609376	1351.775634765625	-1263.06103515625	-438.3533020019532	1357.779541015625	-1214.313110351563	-384.9453430175782	1146.808227539063	-1078.23681640625	-363.1786499023438	1095.831298828125	-1137.91162109375	-311.8460998535157	1147.855346679688	-1067.130981445313	-198.1941528320313	1548.503051757813	-684.8657226562501	-363.4795532226563	1451.276000976563	-546.1026611328126	-340.9168701171876	1406.593139648438	-543.1245727539064	-391.0241088867189	1394.509643554688	-513.5880737304689	-433.5675659179689	1341.498046875	-489.545379638672	-491.981414794922	1331.73583984375	-557.1390380859376	-364.2478332519532	1144.979858398438	-661.9813232421876	-352.5669555664063	1096.466552734375	-598.7013549804689	-294.3056945800782	1114.013061523438	-682.2236938476564	-244.1175689697266	1032.803100585938	-996.193054199219	-242.0691070556641	1030.817504882813	-762.7118530273439	-422.4282531738282	1145.729858398438	-866.681091308594	-434.6607055664064	1116.04345703125	-894.6008911132815	-432.9281616210939	1115.111328125	-837.2282714843752	-311.7569885253907	773.6170043945315	-1106.568603515625	-283.9535522460938	693.4649658203126	-1113.2294921875	-238.2432861328126	691.0407104492189	-1089.521728515625	-314.1560363769532	641.3137207031251	-1106.835327148438	-311.6552734375001	542.4995117187501	-1108.563720703125	-278.6689147949219	518.9545288085939	-988.278259277344	-259.4827575683594	403.0523986816407	-1096.544921875	-321.8169555664063	379.3821105957032	-1150.9697265625	-281.7961730957032	365.4616699218751	-1132.997192382813	-286.3279724121094	280.7048950195313	-1119.220092773438	-364.7261962890626	91.95276641845705	-1151.993408203125	-331.6874389648438	96.39186096191409	-1063.825805664063	-422.4401855468751	49.76899719238283	-1099.453369140625	-196.1147460937501	62.66903305053712	-1111.090698242188	-198.5722351074219	62.56999588012697	-1158.5615234375	-253.0237579345704	38.1817741394043	-1206.907836914063	-352.5443420410157	842.9133911132815	-670.4677124023439	-311.5068664550782	791.936462402344	-659.3001098632814	-278.0564880371094	793.5986328125002	-662.3967895507814	-332.0867004394532	710.2030639648439	-670.1299438476564	-312.0491943359376	535.0173339843751	-664.3488159179689	-277.4821166992188	505.6604003906251	-790.9410400390627	-272.1660766601563	320.9490661621094	-718.4288940429689	-313.0321350097657	256.5130004882813	-638.4174804687501	-280.2031555175782	243.7642364501954	-671.1559448242189	-292.4419250488282	194.6897430419922	-698.4736938476564	-351.7784729003907	93.57505798339845	-639.9132080078126	-325.1535949707032	105.2088317871094	-730.0794677734376	-417.2476196289064	47.91889572143555	-693.5088500976564	-199.8953094482422	57.82650375366212	-700.2302246093751	-195.1723175048829	62.89672470092775	-648.8923339843751	-237.1561279296876	26.84968566894532	-594.0386962890626	
200	0.995	-88.42406463623048	1736.371337890625	-800.3303222656252	-262.1035766601563	1694.456787109375	-822.4821777343752	-118.0049362182617	1750.766235351563	-938.3673095703127	-307.4327087402344	1575.003784179688	-873.852966308594	-394.6958312988282	1267.402587890625	-876.548522949219	-168.504150390625	1481.736450195313	-856.4600830078127	-157.5294036865235	1546.48974609375	-1023.146484375	-305.7674560546876	1468.39404296875	-1191.66259765625	-284.3648986816407	1423.270263671875	-1200.227783203125	-337.4609375000001	1417.739868164063	-1229.817749023438	-380.5663146972657	1351.969116210938	-1263.806396484375	-438.072967529297	1357.985717773438	-1215.09765625	-384.4409179687501	1147.16015625	-1078.891723632813	-362.9135131835938	1096.053833007813	-1138.51123046875	-311.5776977539063	1148.07275390625	-1067.693481445313	-197.8748779296876	1548.591186523438	-685.4510498046876	-363.2770385742188	1451.48291015625	-546.9374389648439	-340.6867980957032	1406.863403320313	-543.7023925781251	-390.8862915039064	1394.612548828125	-514.2656250000001	-433.4181213378907	1341.496948242188	-490.3949279785157	-491.7326660156251	1331.882202148438	-557.8909301757814	-364.1690368652344	1144.943725585938	-662.6478881835939	-352.4155578613282	1096.571411132813	-599.4338989257814	-294.0397644042969	1114.059936523438	-682.9406738281251	-243.7213592529297	1032.990478515625	-996.777038574219	-242.0276336669922	1030.703857421875	-763.3899536132814	-422.1035461425782	1145.855712890625	-867.5531005859377	-434.348846435547	1116.213012695313	-895.3513793945315	-432.6858215332032	1115.164672851563	-837.9448852539065	-311.5092773437501	773.6450805664065	-1107.244750976563	-283.7097778320313	693.5319213867189	-1113.697143554688	-237.9530334472657	690.9156494140626	-1089.97998046875	-313.8856811523438	641.3701782226564	-1107.509033203125	-311.7329406738282	542.4611816406251	-1109.013793945313	-278.7445373535157	518.9895019531251	-988.640808105469	-259.4775390625001	402.9907836914064	-1096.736572265625	-321.8523254394532	379.3438110351563	-1151.255615234375	-281.8344116210938	365.4851989746094	-1133.289306640625	-286.4091491699219	280.7088317871094	-1119.444580078125	-364.7751770019532	91.92799377441408	-1152.029296875	-331.6626586914063	96.39139556884768	-1063.886474609375	-422.4272460937501	49.81452941894533	-1099.435546875	-196.1804504394532	62.64317703247072	-1111.168823242188	-198.5059204101563	62.533260345459	-1158.611083984375	-253.0082244873047	38.15860748291016	-1206.938110351563	-352.6098022460938	842.8193969726565	-671.0539550781251	-311.3682250976563	791.9649658203127	-659.8900146484376	-278.1292114257813	793.4984130859377	-662.9581298828126	-332.1942443847657	709.9559326171876	-670.7317504882814	-312.0256958007813	534.9875488281251	-665.1292724609376	-277.5495910644532	505.5697021484376	-791.6209716796877	-272.1472778320313	321.0609741210938	-718.9060668945314	-312.9645690917969	256.3899230957032	-638.8466186523439	-280.2406616210938	243.7178039550782	-671.6041259765626	-292.1236572265626	194.7799530029297	-698.9550781250001	-351.5931396484376	93.64532470703126	-640.0328979492189	-325.0818481445313	105.166259765625	-730.2436523437501	-417.2047119140626	47.85334777832032	-693.5950317382814	-200.0585632324219	57.70507431030275	-700.3106079101564	-195.155746459961	63.02721023559572	-649.0195922851564	-237.2082824707032	26.90252494812012	-594.0794067382814	
